<mxfile host="Electron" modified="2024-02-22T16:09:24.803Z" agent="Mozilla/5.0 (Windows NT 10.0; Win64; x64) AppleWebKit/537.36 (KHTML, like Gecko) draw.io/23.1.5 Chrome/120.0.6099.109 Electron/28.1.0 Safari/537.36" etag="hFSvn6-I9lpAFtZoEv9g" version="23.1.5" type="device">
  <diagram name="Pagina-1" id="0aYWfik2tRvVnqfVITxD">
    <mxGraphModel dx="2388" dy="1314" grid="1" gridSize="10" guides="1" tooltips="1" connect="1" arrows="1" fold="1" page="1" pageScale="1" pageWidth="1920" pageHeight="1200" math="0" shadow="0">
      <root>
        <mxCell id="0" />
        <mxCell id="1" parent="0" />
        <mxCell id="Hyuof-0oOEh174YBL4KO-2" value="Actor: Organizer" style="rounded=1;whiteSpace=wrap;html=1;" vertex="1" parent="1">
          <mxGeometry x="60" y="100" width="120" height="60" as="geometry" />
        </mxCell>
        <mxCell id="Hyuof-0oOEh174YBL4KO-3" value="View: AddEventPage" style="rounded=1;whiteSpace=wrap;html=1;" vertex="1" parent="1">
          <mxGeometry x="240" y="100" width="120" height="60" as="geometry" />
        </mxCell>
        <mxCell id="Hyuof-0oOEh174YBL4KO-4" value="Controller: ManageEvent" style="rounded=1;whiteSpace=wrap;html=1;" vertex="1" parent="1">
          <mxGeometry x="420" y="100" width="120" height="60" as="geometry" />
        </mxCell>
        <mxCell id="Hyuof-0oOEh174YBL4KO-5" value="Model: Event" style="rounded=1;whiteSpace=wrap;html=1;" vertex="1" parent="1">
          <mxGeometry x="780" y="100" width="120" height="60" as="geometry" />
        </mxCell>
        <mxCell id="Hyuof-0oOEh174YBL4KO-6" value="Dao: EventDAO" style="rounded=1;whiteSpace=wrap;html=1;" vertex="1" parent="1">
          <mxGeometry x="1140" y="100" width="120" height="60" as="geometry" />
        </mxCell>
        <mxCell id="Hyuof-0oOEh174YBL4KO-7" value="Dao: NotificationDAO" style="rounded=1;whiteSpace=wrap;html=1;" vertex="1" parent="1">
          <mxGeometry x="1330" y="100" width="120" height="60" as="geometry" />
        </mxCell>
        <mxCell id="Hyuof-0oOEh174YBL4KO-8" value="Model: Notification" style="rounded=1;whiteSpace=wrap;html=1;" vertex="1" parent="1">
          <mxGeometry x="960" y="100" width="120" height="60" as="geometry" />
        </mxCell>
        <mxCell id="Hyuof-0oOEh174YBL4KO-9" value="Controller: NotificationController" style="rounded=1;whiteSpace=wrap;html=1;" vertex="1" parent="1">
          <mxGeometry x="600" y="100" width="120" height="60" as="geometry" />
        </mxCell>
        <mxCell id="Hyuof-0oOEh174YBL4KO-10" value="Server: NotificationHandler" style="rounded=1;whiteSpace=wrap;html=1;" vertex="1" parent="1">
          <mxGeometry x="1710" y="100" width="120" height="60" as="geometry" />
        </mxCell>
        <mxCell id="Hyuof-0oOEh174YBL4KO-11" value="Database: Internal database" style="rounded=1;whiteSpace=wrap;html=1;" vertex="1" parent="1">
          <mxGeometry x="1520" y="100" width="120" height="60" as="geometry" />
        </mxCell>
        <mxCell id="Hyuof-0oOEh174YBL4KO-12" value="" style="endArrow=none;dashed=1;html=1;rounded=0;" edge="1" parent="1">
          <mxGeometry width="50" height="50" relative="1" as="geometry">
            <mxPoint x="120.25" y="1190" as="sourcePoint" />
            <mxPoint x="120" y="160" as="targetPoint" />
          </mxGeometry>
        </mxCell>
        <mxCell id="Hyuof-0oOEh174YBL4KO-13" value="" style="endArrow=none;dashed=1;html=1;rounded=0;" edge="1" parent="1">
          <mxGeometry width="50" height="50" relative="1" as="geometry">
            <mxPoint x="300" y="1190" as="sourcePoint" />
            <mxPoint x="300" y="160" as="targetPoint" />
          </mxGeometry>
        </mxCell>
        <mxCell id="Hyuof-0oOEh174YBL4KO-14" value="" style="endArrow=none;dashed=1;html=1;rounded=0;" edge="1" parent="1">
          <mxGeometry width="50" height="50" relative="1" as="geometry">
            <mxPoint x="479" y="1190" as="sourcePoint" />
            <mxPoint x="479.38" y="160" as="targetPoint" />
          </mxGeometry>
        </mxCell>
        <mxCell id="Hyuof-0oOEh174YBL4KO-16" value="" style="endArrow=none;dashed=1;html=1;rounded=0;" edge="1" parent="1">
          <mxGeometry width="50" height="50" relative="1" as="geometry">
            <mxPoint x="659" y="1190" as="sourcePoint" />
            <mxPoint x="659.37" y="160" as="targetPoint" />
          </mxGeometry>
        </mxCell>
        <mxCell id="Hyuof-0oOEh174YBL4KO-17" value="" style="endArrow=none;dashed=1;html=1;rounded=0;" edge="1" parent="1">
          <mxGeometry width="50" height="50" relative="1" as="geometry">
            <mxPoint x="840" y="1190" as="sourcePoint" />
            <mxPoint x="839.38" y="160" as="targetPoint" />
          </mxGeometry>
        </mxCell>
        <mxCell id="Hyuof-0oOEh174YBL4KO-18" value="" style="endArrow=none;dashed=1;html=1;rounded=0;" edge="1" parent="1" source="Hyuof-0oOEh174YBL4KO-68">
          <mxGeometry width="50" height="50" relative="1" as="geometry">
            <mxPoint x="1019" y="1190" as="sourcePoint" />
            <mxPoint x="1019.38" y="160" as="targetPoint" />
          </mxGeometry>
        </mxCell>
        <mxCell id="Hyuof-0oOEh174YBL4KO-19" value="" style="endArrow=none;dashed=1;html=1;rounded=0;" edge="1" parent="1">
          <mxGeometry width="50" height="50" relative="1" as="geometry">
            <mxPoint x="1199" y="1190" as="sourcePoint" />
            <mxPoint x="1199.38" y="160" as="targetPoint" />
          </mxGeometry>
        </mxCell>
        <mxCell id="Hyuof-0oOEh174YBL4KO-20" value="" style="endArrow=none;dashed=1;html=1;rounded=0;" edge="1" parent="1">
          <mxGeometry width="50" height="50" relative="1" as="geometry">
            <mxPoint x="1389" y="1170" as="sourcePoint" />
            <mxPoint x="1389.38" y="160" as="targetPoint" />
          </mxGeometry>
        </mxCell>
        <mxCell id="Hyuof-0oOEh174YBL4KO-21" value="" style="endArrow=none;dashed=1;html=1;rounded=0;" edge="1" parent="1">
          <mxGeometry width="50" height="50" relative="1" as="geometry">
            <mxPoint x="1579" y="1180" as="sourcePoint" />
            <mxPoint x="1579.38" y="160" as="targetPoint" />
          </mxGeometry>
        </mxCell>
        <mxCell id="Hyuof-0oOEh174YBL4KO-22" value="" style="endArrow=none;dashed=1;html=1;rounded=0;" edge="1" parent="1">
          <mxGeometry width="50" height="50" relative="1" as="geometry">
            <mxPoint x="1769.72" y="1180" as="sourcePoint" />
            <mxPoint x="1769.47" y="160" as="targetPoint" />
          </mxGeometry>
        </mxCell>
        <mxCell id="Hyuof-0oOEh174YBL4KO-23" value="sd: Create Event" style="shape=umlFrame;whiteSpace=wrap;html=1;pointerEvents=0;width=150;height=30;" vertex="1" parent="1">
          <mxGeometry width="1920" height="1200" as="geometry" />
        </mxCell>
        <mxCell id="Hyuof-0oOEh174YBL4KO-25" value="" style="endArrow=open;startArrow=none;endFill=0;startFill=0;endSize=8;html=1;verticalAlign=bottom;labelBackgroundColor=none;strokeWidth=1;rounded=0;entryX=0;entryY=0;entryDx=0;entryDy=5;entryPerimeter=0;" edge="1" parent="1">
          <mxGeometry width="160" relative="1" as="geometry">
            <mxPoint x="670" y="770" as="sourcePoint" />
            <mxPoint x="1770" y="775" as="targetPoint" />
          </mxGeometry>
        </mxCell>
        <mxCell id="Hyuof-0oOEh174YBL4KO-26" value="&lt;font style=&quot;font-size: 8px;&quot;&gt;&amp;lt;&amp;lt;done&amp;gt;&amp;gt;&lt;/font&gt;" style="endArrow=open;startArrow=none;endFill=0;startFill=0;endSize=8;html=1;verticalAlign=bottom;dashed=1;labelBackgroundColor=none;rounded=0;exitX=0;exitY=1;exitDx=0;exitDy=-5;exitPerimeter=0;" edge="1" parent="1" source="Hyuof-0oOEh174YBL4KO-55">
          <mxGeometry width="160" relative="1" as="geometry">
            <mxPoint x="1311" y="529" as="sourcePoint" />
            <mxPoint x="1210" y="514" as="targetPoint" />
            <mxPoint as="offset" />
          </mxGeometry>
        </mxCell>
        <mxCell id="Hyuof-0oOEh174YBL4KO-27" value="" style="html=1;verticalAlign=bottom;labelBackgroundColor=none;endArrow=block;endFill=1;rounded=0;" edge="1" parent="1">
          <mxGeometry width="160" relative="1" as="geometry">
            <mxPoint x="120" y="190" as="sourcePoint" />
            <mxPoint x="300" y="190" as="targetPoint" />
          </mxGeometry>
        </mxCell>
        <mxCell id="Hyuof-0oOEh174YBL4KO-28" value="" style="html=1;points=[[0,0,0,0,5],[0,1,0,0,-5],[1,0,0,0,5],[1,1,0,0,-5]];perimeter=orthogonalPerimeter;outlineConnect=0;targetShapes=umlLifeline;portConstraint=eastwest;newEdgeStyle={&quot;curved&quot;:0,&quot;rounded&quot;:0};" vertex="1" parent="1">
          <mxGeometry x="300" y="190" width="10" height="110" as="geometry" />
        </mxCell>
        <mxCell id="Hyuof-0oOEh174YBL4KO-29" value="&lt;font style=&quot;font-size: 9px;&quot;&gt;Create&lt;/font&gt;" style="text;html=1;align=center;verticalAlign=middle;resizable=0;points=[];autosize=1;strokeColor=none;fillColor=none;" vertex="1" parent="1">
          <mxGeometry x="180" y="168" width="50" height="30" as="geometry" />
        </mxCell>
        <mxCell id="Hyuof-0oOEh174YBL4KO-30" value="" style="html=1;verticalAlign=bottom;labelBackgroundColor=none;endArrow=block;endFill=1;rounded=0;" edge="1" parent="1">
          <mxGeometry width="160" relative="1" as="geometry">
            <mxPoint x="310" y="200" as="sourcePoint" />
            <mxPoint x="480" y="200" as="targetPoint" />
          </mxGeometry>
        </mxCell>
        <mxCell id="Hyuof-0oOEh174YBL4KO-31" value="&lt;font style=&quot;font-size: 9px;&quot;&gt;Create&lt;/font&gt;" style="text;html=1;align=center;verticalAlign=middle;resizable=0;points=[];autosize=1;strokeColor=none;fillColor=none;" vertex="1" parent="1">
          <mxGeometry x="370" y="178" width="50" height="30" as="geometry" />
        </mxCell>
        <mxCell id="Hyuof-0oOEh174YBL4KO-32" value="" style="html=1;points=[[0,0,0,0,5],[0,1,0,0,-5],[1,0,0,0,5],[1,1,0,0,-5]];perimeter=orthogonalPerimeter;outlineConnect=0;targetShapes=umlLifeline;portConstraint=eastwest;newEdgeStyle={&quot;curved&quot;:0,&quot;rounded&quot;:0};" vertex="1" parent="1">
          <mxGeometry x="480" y="200" width="10" height="30" as="geometry" />
        </mxCell>
        <mxCell id="Hyuof-0oOEh174YBL4KO-33" value="" style="html=1;verticalAlign=bottom;labelBackgroundColor=none;endArrow=block;endFill=1;rounded=0;" edge="1" parent="1">
          <mxGeometry width="160" relative="1" as="geometry">
            <mxPoint x="490" y="210" as="sourcePoint" />
            <mxPoint x="1200" y="210" as="targetPoint" />
          </mxGeometry>
        </mxCell>
        <mxCell id="Hyuof-0oOEh174YBL4KO-34" value="&lt;font style=&quot;font-size: 9px;&quot;&gt;Create&lt;/font&gt;" style="text;html=1;align=center;verticalAlign=middle;resizable=0;points=[];autosize=1;strokeColor=none;fillColor=none;" vertex="1" parent="1">
          <mxGeometry x="780" y="188" width="50" height="30" as="geometry" />
        </mxCell>
        <mxCell id="Hyuof-0oOEh174YBL4KO-35" value="" style="html=1;points=[[0,0,0,0,5],[0,1,0,0,-5],[1,0,0,0,5],[1,1,0,0,-5]];perimeter=orthogonalPerimeter;outlineConnect=0;targetShapes=umlLifeline;portConstraint=eastwest;newEdgeStyle={&quot;curved&quot;:0,&quot;rounded&quot;:0};" vertex="1" parent="1">
          <mxGeometry x="1200" y="210" width="10" height="20" as="geometry" />
        </mxCell>
        <mxCell id="Hyuof-0oOEh174YBL4KO-36" value="" style="html=1;verticalAlign=bottom;labelBackgroundColor=none;endArrow=block;endFill=1;rounded=0;" edge="1" parent="1" target="Hyuof-0oOEh174YBL4KO-38">
          <mxGeometry width="160" relative="1" as="geometry">
            <mxPoint x="310" y="250" as="sourcePoint" />
            <mxPoint x="480" y="250" as="targetPoint" />
          </mxGeometry>
        </mxCell>
        <mxCell id="Hyuof-0oOEh174YBL4KO-37" value="&lt;font style=&quot;font-size: 9px;&quot;&gt;Create&lt;/font&gt;" style="text;html=1;align=center;verticalAlign=middle;resizable=0;points=[];autosize=1;strokeColor=none;fillColor=none;" vertex="1" parent="1">
          <mxGeometry x="500" y="228" width="50" height="30" as="geometry" />
        </mxCell>
        <mxCell id="Hyuof-0oOEh174YBL4KO-38" value="" style="html=1;points=[[0,0,0,0,5],[0,1,0,0,-5],[1,0,0,0,5],[1,1,0,0,-5]];perimeter=orthogonalPerimeter;outlineConnect=0;targetShapes=umlLifeline;portConstraint=eastwest;newEdgeStyle={&quot;curved&quot;:0,&quot;rounded&quot;:0};" vertex="1" parent="1">
          <mxGeometry x="660" y="250" width="10" height="30" as="geometry" />
        </mxCell>
        <mxCell id="Hyuof-0oOEh174YBL4KO-39" value="" style="html=1;points=[[0,0,0,0,5],[0,1,0,0,-5],[1,0,0,0,5],[1,1,0,0,-5]];perimeter=orthogonalPerimeter;outlineConnect=0;targetShapes=umlLifeline;portConstraint=eastwest;newEdgeStyle={&quot;curved&quot;:0,&quot;rounded&quot;:0};" vertex="1" parent="1">
          <mxGeometry x="1390" y="262" width="10" height="20" as="geometry" />
        </mxCell>
        <mxCell id="Hyuof-0oOEh174YBL4KO-40" value="" style="html=1;verticalAlign=bottom;labelBackgroundColor=none;endArrow=block;endFill=1;rounded=0;" edge="1" parent="1" target="Hyuof-0oOEh174YBL4KO-39">
          <mxGeometry width="160" relative="1" as="geometry">
            <mxPoint x="670" y="262" as="sourcePoint" />
            <mxPoint x="1380" y="262" as="targetPoint" />
          </mxGeometry>
        </mxCell>
        <mxCell id="Hyuof-0oOEh174YBL4KO-41" value="&lt;font style=&quot;font-size: 9px;&quot;&gt;Create&lt;/font&gt;" style="text;html=1;align=center;verticalAlign=middle;resizable=0;points=[];autosize=1;strokeColor=none;fillColor=none;" vertex="1" parent="1">
          <mxGeometry x="960" y="240" width="50" height="30" as="geometry" />
        </mxCell>
        <mxCell id="Hyuof-0oOEh174YBL4KO-42" value="" style="html=1;verticalAlign=bottom;labelBackgroundColor=none;endArrow=block;endFill=1;rounded=0;" edge="1" parent="1">
          <mxGeometry width="160" relative="1" as="geometry">
            <mxPoint x="120" y="372" as="sourcePoint" />
            <mxPoint x="300" y="372" as="targetPoint" />
          </mxGeometry>
        </mxCell>
        <mxCell id="Hyuof-0oOEh174YBL4KO-43" value="&lt;font style=&quot;font-size: 9px;&quot;&gt;addEvent&lt;br&gt;&lt;/font&gt;" style="text;html=1;align=center;verticalAlign=middle;resizable=0;points=[];autosize=1;strokeColor=none;fillColor=none;" vertex="1" parent="1">
          <mxGeometry x="175" y="350" width="60" height="30" as="geometry" />
        </mxCell>
        <mxCell id="Hyuof-0oOEh174YBL4KO-44" value="" style="html=1;points=[[0,0,0,0,5],[0,1,0,0,-5],[1,0,0,0,5],[1,1,0,0,-5]];perimeter=orthogonalPerimeter;outlineConnect=0;targetShapes=umlLifeline;portConstraint=eastwest;newEdgeStyle={&quot;curved&quot;:0,&quot;rounded&quot;:0};" vertex="1" parent="1">
          <mxGeometry x="300" y="372" width="10" height="518" as="geometry" />
        </mxCell>
        <mxCell id="Hyuof-0oOEh174YBL4KO-45" value="" style="html=1;verticalAlign=bottom;labelBackgroundColor=none;endArrow=block;endFill=1;rounded=0;" edge="1" parent="1" target="Hyuof-0oOEh174YBL4KO-47">
          <mxGeometry width="160" relative="1" as="geometry">
            <mxPoint x="490" y="430" as="sourcePoint" />
            <mxPoint x="830" y="430" as="targetPoint" />
            <Array as="points">
              <mxPoint x="750" y="430" />
            </Array>
          </mxGeometry>
        </mxCell>
        <mxCell id="Hyuof-0oOEh174YBL4KO-46" value="&lt;font style=&quot;font-size: 9px;&quot;&gt;Create&lt;br&gt;&lt;/font&gt;" style="text;html=1;align=center;verticalAlign=middle;resizable=0;points=[];autosize=1;strokeColor=none;fillColor=none;" vertex="1" parent="1">
          <mxGeometry x="550" y="410" width="50" height="30" as="geometry" />
        </mxCell>
        <mxCell id="Hyuof-0oOEh174YBL4KO-47" value="" style="html=1;points=[[0,0,0,0,5],[0,1,0,0,-5],[1,0,0,0,5],[1,1,0,0,-5]];perimeter=orthogonalPerimeter;outlineConnect=0;targetShapes=umlLifeline;portConstraint=eastwest;newEdgeStyle={&quot;curved&quot;:0,&quot;rounded&quot;:0};" vertex="1" parent="1">
          <mxGeometry x="840" y="430" width="10" height="20" as="geometry" />
        </mxCell>
        <mxCell id="Hyuof-0oOEh174YBL4KO-48" value="" style="html=1;verticalAlign=bottom;labelBackgroundColor=none;endArrow=block;endFill=1;rounded=0;" edge="1" parent="1">
          <mxGeometry width="160" relative="1" as="geometry">
            <mxPoint x="310" y="422" as="sourcePoint" />
            <mxPoint x="480" y="422" as="targetPoint" />
          </mxGeometry>
        </mxCell>
        <mxCell id="Hyuof-0oOEh174YBL4KO-49" value="&lt;font style=&quot;font-size: 9px;&quot;&gt;addEvent&lt;br&gt;&lt;/font&gt;" style="text;html=1;align=center;verticalAlign=middle;resizable=0;points=[];autosize=1;strokeColor=none;fillColor=none;" vertex="1" parent="1">
          <mxGeometry x="365" y="400" width="60" height="30" as="geometry" />
        </mxCell>
        <mxCell id="Hyuof-0oOEh174YBL4KO-50" value="" style="html=1;points=[[0,0,0,0,5],[0,1,0,0,-5],[1,0,0,0,5],[1,1,0,0,-5]];perimeter=orthogonalPerimeter;outlineConnect=0;targetShapes=umlLifeline;portConstraint=eastwest;newEdgeStyle={&quot;curved&quot;:0,&quot;rounded&quot;:0};" vertex="1" parent="1">
          <mxGeometry x="480" y="422" width="10" height="128" as="geometry" />
        </mxCell>
        <mxCell id="Hyuof-0oOEh174YBL4KO-51" value="" style="html=1;verticalAlign=bottom;labelBackgroundColor=none;endArrow=block;endFill=1;rounded=0;" edge="1" parent="1">
          <mxGeometry width="160" relative="1" as="geometry">
            <mxPoint x="490" y="464.64" as="sourcePoint" />
            <mxPoint x="1200" y="464.6399999999999" as="targetPoint" />
          </mxGeometry>
        </mxCell>
        <mxCell id="Hyuof-0oOEh174YBL4KO-52" value="&lt;font style=&quot;font-size: 9px;&quot;&gt;addEvent()&lt;br&gt;&lt;/font&gt;" style="text;html=1;align=center;verticalAlign=middle;resizable=0;points=[];autosize=1;strokeColor=none;fillColor=none;" vertex="1" parent="1">
          <mxGeometry x="540" y="440" width="70" height="30" as="geometry" />
        </mxCell>
        <mxCell id="Hyuof-0oOEh174YBL4KO-53" value="" style="html=1;points=[[0,0,0,0,5],[0,1,0,0,-5],[1,0,0,0,5],[1,1,0,0,-5]];perimeter=orthogonalPerimeter;outlineConnect=0;targetShapes=umlLifeline;portConstraint=eastwest;newEdgeStyle={&quot;curved&quot;:0,&quot;rounded&quot;:0};" vertex="1" parent="1">
          <mxGeometry x="1200" y="464" width="10" height="70" as="geometry" />
        </mxCell>
        <mxCell id="Hyuof-0oOEh174YBL4KO-54" value="" style="endArrow=open;startArrow=none;endFill=0;startFill=0;endSize=8;html=1;verticalAlign=bottom;labelBackgroundColor=none;strokeWidth=1;rounded=0;" edge="1" parent="1" target="Hyuof-0oOEh174YBL4KO-55">
          <mxGeometry width="160" relative="1" as="geometry">
            <mxPoint x="1210" y="469" as="sourcePoint" />
            <mxPoint x="1370" y="469" as="targetPoint" />
          </mxGeometry>
        </mxCell>
        <mxCell id="Hyuof-0oOEh174YBL4KO-55" value="" style="html=1;points=[[0,0,0,0,5],[0,1,0,0,-5],[1,0,0,0,5],[1,1,0,0,-5]];perimeter=orthogonalPerimeter;outlineConnect=0;targetShapes=umlLifeline;portConstraint=eastwest;newEdgeStyle={&quot;curved&quot;:0,&quot;rounded&quot;:0};" vertex="1" parent="1">
          <mxGeometry x="1580" y="469" width="10" height="50" as="geometry" />
        </mxCell>
        <mxCell id="Hyuof-0oOEh174YBL4KO-56" value="&lt;font style=&quot;font-size: 9px;&quot;&gt;addEventQuery&lt;br&gt;&lt;/font&gt;" style="text;html=1;align=center;verticalAlign=middle;resizable=0;points=[];autosize=1;strokeColor=none;fillColor=none;" vertex="1" parent="1">
          <mxGeometry x="1346" y="447" width="90" height="30" as="geometry" />
        </mxCell>
        <mxCell id="Hyuof-0oOEh174YBL4KO-60" value="" style="html=1;verticalAlign=bottom;labelBackgroundColor=none;endArrow=block;endFill=1;rounded=0;" edge="1" parent="1">
          <mxGeometry width="160" relative="1" as="geometry">
            <mxPoint x="670" y="600" as="sourcePoint" />
            <mxPoint x="1020" y="600" as="targetPoint" />
          </mxGeometry>
        </mxCell>
        <mxCell id="Hyuof-0oOEh174YBL4KO-61" value="&lt;font style=&quot;font-size: 9px;&quot;&gt;Create&lt;br&gt;&lt;/font&gt;" style="text;html=1;align=center;verticalAlign=middle;resizable=0;points=[];autosize=1;strokeColor=none;fillColor=none;" vertex="1" parent="1">
          <mxGeometry x="815" y="574" width="50" height="30" as="geometry" />
        </mxCell>
        <mxCell id="Hyuof-0oOEh174YBL4KO-62" value="" style="html=1;points=[[0,0,0,0,5],[0,1,0,0,-5],[1,0,0,0,5],[1,1,0,0,-5]];perimeter=orthogonalPerimeter;outlineConnect=0;targetShapes=umlLifeline;portConstraint=eastwest;newEdgeStyle={&quot;curved&quot;:0,&quot;rounded&quot;:0};" vertex="1" parent="1">
          <mxGeometry x="1020" y="600" width="10" height="20" as="geometry" />
        </mxCell>
        <mxCell id="Hyuof-0oOEh174YBL4KO-63" value="" style="html=1;verticalAlign=bottom;labelBackgroundColor=none;endArrow=block;endFill=1;rounded=0;" edge="1" parent="1">
          <mxGeometry width="160" relative="1" as="geometry">
            <mxPoint x="310" y="582" as="sourcePoint" />
            <mxPoint x="660" y="582" as="targetPoint" />
          </mxGeometry>
        </mxCell>
        <mxCell id="Hyuof-0oOEh174YBL4KO-64" value="&lt;font style=&quot;font-size: 9px;&quot;&gt;addNotificationToUsers&lt;br&gt;&lt;/font&gt;" style="text;html=1;align=center;verticalAlign=middle;resizable=0;points=[];autosize=1;strokeColor=none;fillColor=none;" vertex="1" parent="1">
          <mxGeometry x="420" y="560" width="120" height="30" as="geometry" />
        </mxCell>
        <mxCell id="Hyuof-0oOEh174YBL4KO-65" value="" style="html=1;points=[[0,0,0,0,5],[0,1,0,0,-5],[1,0,0,0,5],[1,1,0,0,-5]];perimeter=orthogonalPerimeter;outlineConnect=0;targetShapes=umlLifeline;portConstraint=eastwest;newEdgeStyle={&quot;curved&quot;:0,&quot;rounded&quot;:0};" vertex="1" parent="1">
          <mxGeometry x="660" y="580" width="10" height="270" as="geometry" />
        </mxCell>
        <mxCell id="Hyuof-0oOEh174YBL4KO-66" value="" style="html=1;points=[[0,0,0,0,5],[0,1,0,0,-5],[1,0,0,0,5],[1,1,0,0,-5]];perimeter=orthogonalPerimeter;outlineConnect=0;targetShapes=umlLifeline;portConstraint=eastwest;newEdgeStyle={&quot;curved&quot;:0,&quot;rounded&quot;:0};" vertex="1" parent="1">
          <mxGeometry x="1390" y="661" width="10" height="70" as="geometry" />
        </mxCell>
        <mxCell id="Hyuof-0oOEh174YBL4KO-67" value="" style="html=1;verticalAlign=bottom;labelBackgroundColor=none;endArrow=block;endFill=1;rounded=0;" edge="1" parent="1" target="Hyuof-0oOEh174YBL4KO-66">
          <mxGeometry width="160" relative="1" as="geometry">
            <mxPoint x="670" y="662" as="sourcePoint" />
            <mxPoint x="1020" y="662" as="targetPoint" />
          </mxGeometry>
        </mxCell>
        <mxCell id="Hyuof-0oOEh174YBL4KO-69" value="" style="endArrow=none;dashed=1;html=1;rounded=0;" edge="1" parent="1" target="Hyuof-0oOEh174YBL4KO-68">
          <mxGeometry width="50" height="50" relative="1" as="geometry">
            <mxPoint x="1019" y="1190" as="sourcePoint" />
            <mxPoint x="1019.38" y="160" as="targetPoint" />
          </mxGeometry>
        </mxCell>
        <mxCell id="Hyuof-0oOEh174YBL4KO-68" value="&lt;font style=&quot;font-size: 9px;&quot;&gt;addNotificationToUsers&lt;br&gt;&lt;/font&gt;" style="text;html=1;align=center;verticalAlign=middle;resizable=0;points=[];autosize=1;strokeColor=none;fillColor=none;" vertex="1" parent="1">
          <mxGeometry x="960" y="640" width="120" height="30" as="geometry" />
        </mxCell>
        <mxCell id="Hyuof-0oOEh174YBL4KO-70" value="" style="html=1;points=[[0,0,0,0,5],[0,1,0,0,-5],[1,0,0,0,5],[1,1,0,0,-5]];perimeter=orthogonalPerimeter;outlineConnect=0;targetShapes=umlLifeline;portConstraint=eastwest;newEdgeStyle={&quot;curved&quot;:0,&quot;rounded&quot;:0};" vertex="1" parent="1">
          <mxGeometry x="1580" y="671" width="10" height="49" as="geometry" />
        </mxCell>
        <mxCell id="Hyuof-0oOEh174YBL4KO-71" value="" style="endArrow=open;startArrow=none;endFill=0;startFill=0;endSize=8;html=1;verticalAlign=bottom;labelBackgroundColor=none;strokeWidth=1;rounded=0;" edge="1" parent="1" target="Hyuof-0oOEh174YBL4KO-70">
          <mxGeometry width="160" relative="1" as="geometry">
            <mxPoint x="1400" y="672" as="sourcePoint" />
            <mxPoint x="1770" y="672" as="targetPoint" />
          </mxGeometry>
        </mxCell>
        <mxCell id="Hyuof-0oOEh174YBL4KO-72" value="&lt;font style=&quot;font-size: 9px;&quot;&gt;addNotificationToUsersQuery&lt;br&gt;&lt;/font&gt;" style="text;html=1;align=center;verticalAlign=middle;resizable=0;points=[];autosize=1;strokeColor=none;fillColor=none;" vertex="1" parent="1">
          <mxGeometry x="1420" y="650" width="140" height="30" as="geometry" />
        </mxCell>
        <mxCell id="Hyuof-0oOEh174YBL4KO-73" value="&lt;font style=&quot;font-size: 8px;&quot;&gt;&amp;lt;&amp;lt;done&amp;gt;&amp;gt;&lt;/font&gt;" style="endArrow=open;startArrow=none;endFill=0;startFill=0;endSize=8;html=1;verticalAlign=bottom;dashed=1;labelBackgroundColor=none;rounded=0;" edge="1" parent="1">
          <mxGeometry width="160" relative="1" as="geometry">
            <mxPoint x="1580" y="710" as="sourcePoint" />
            <mxPoint x="1400" y="710" as="targetPoint" />
            <mxPoint as="offset" />
          </mxGeometry>
        </mxCell>
        <mxCell id="Hyuof-0oOEh174YBL4KO-77" value="" style="html=1;points=[[0,0,0,0,5],[0,1,0,0,-5],[1,0,0,0,5],[1,1,0,0,-5]];perimeter=orthogonalPerimeter;outlineConnect=0;targetShapes=umlLifeline;portConstraint=eastwest;newEdgeStyle={&quot;curved&quot;:0,&quot;rounded&quot;:0};" vertex="1" parent="1">
          <mxGeometry x="1770" y="774" width="10" height="46" as="geometry" />
        </mxCell>
        <mxCell id="Hyuof-0oOEh174YBL4KO-78" value="&lt;font style=&quot;font-size: 9px;&quot;&gt;sendNotificationToServer&lt;br&gt;&lt;/font&gt;" style="text;html=1;align=center;verticalAlign=middle;resizable=0;points=[];autosize=1;strokeColor=none;fillColor=none;" vertex="1" parent="1">
          <mxGeometry x="1140" y="750" width="120" height="30" as="geometry" />
        </mxCell>
        <mxCell id="Hyuof-0oOEh174YBL4KO-83" value="" style="html=1;verticalAlign=bottom;labelBackgroundColor=none;endArrow=block;endFill=1;rounded=0;" edge="1" parent="1">
          <mxGeometry width="160" relative="1" as="geometry">
            <mxPoint x="120" y="942" as="sourcePoint" />
            <mxPoint x="300" y="942" as="targetPoint" />
          </mxGeometry>
        </mxCell>
        <mxCell id="Hyuof-0oOEh174YBL4KO-84" value="&lt;font style=&quot;font-size: 9px;&quot;&gt;destroy&lt;br&gt;&lt;/font&gt;" style="text;html=1;align=center;verticalAlign=middle;resizable=0;points=[];autosize=1;strokeColor=none;fillColor=none;" vertex="1" parent="1">
          <mxGeometry x="180" y="920" width="50" height="30" as="geometry" />
        </mxCell>
        <mxCell id="Hyuof-0oOEh174YBL4KO-85" value="" style="html=1;points=[[0,0,0,0,5],[0,1,0,0,-5],[1,0,0,0,5],[1,1,0,0,-5]];perimeter=orthogonalPerimeter;outlineConnect=0;targetShapes=umlLifeline;portConstraint=eastwest;newEdgeStyle={&quot;curved&quot;:0,&quot;rounded&quot;:0};" vertex="1" parent="1">
          <mxGeometry x="300" y="941" width="10" height="229" as="geometry" />
        </mxCell>
        <mxCell id="Hyuof-0oOEh174YBL4KO-86" value="" style="html=1;points=[[0,0,0,0,5],[0,1,0,0,-5],[1,0,0,0,5],[1,1,0,0,-5]];perimeter=orthogonalPerimeter;outlineConnect=0;targetShapes=umlLifeline;portConstraint=eastwest;newEdgeStyle={&quot;curved&quot;:0,&quot;rounded&quot;:0};" vertex="1" parent="1">
          <mxGeometry x="480" y="950" width="10" height="80" as="geometry" />
        </mxCell>
        <mxCell id="Hyuof-0oOEh174YBL4KO-87" value="" style="html=1;verticalAlign=bottom;labelBackgroundColor=none;endArrow=block;endFill=1;rounded=0;" edge="1" parent="1">
          <mxGeometry width="160" relative="1" as="geometry">
            <mxPoint x="310" y="952" as="sourcePoint" />
            <mxPoint x="480" y="952" as="targetPoint" />
          </mxGeometry>
        </mxCell>
        <mxCell id="Hyuof-0oOEh174YBL4KO-88" value="&lt;font style=&quot;font-size: 9px;&quot;&gt;destroy&lt;br&gt;&lt;/font&gt;" style="text;html=1;align=center;verticalAlign=middle;resizable=0;points=[];autosize=1;strokeColor=none;fillColor=none;" vertex="1" parent="1">
          <mxGeometry x="370" y="930" width="50" height="30" as="geometry" />
        </mxCell>
        <mxCell id="Hyuof-0oOEh174YBL4KO-89" value="" style="html=1;verticalAlign=bottom;labelBackgroundColor=none;endArrow=block;endFill=1;rounded=0;" edge="1" parent="1" target="Hyuof-0oOEh174YBL4KO-91">
          <mxGeometry width="160" relative="1" as="geometry">
            <mxPoint x="310" y="1062" as="sourcePoint" />
            <mxPoint x="480" y="1062" as="targetPoint" />
          </mxGeometry>
        </mxCell>
        <mxCell id="Hyuof-0oOEh174YBL4KO-90" value="&lt;font style=&quot;font-size: 9px;&quot;&gt;destroy&lt;br&gt;&lt;/font&gt;" style="text;html=1;align=center;verticalAlign=middle;resizable=0;points=[];autosize=1;strokeColor=none;fillColor=none;" vertex="1" parent="1">
          <mxGeometry x="460" y="1040" width="50" height="30" as="geometry" />
        </mxCell>
        <mxCell id="Hyuof-0oOEh174YBL4KO-91" value="" style="html=1;points=[[0,0,0,0,5],[0,1,0,0,-5],[1,0,0,0,5],[1,1,0,0,-5]];perimeter=orthogonalPerimeter;outlineConnect=0;targetShapes=umlLifeline;portConstraint=eastwest;newEdgeStyle={&quot;curved&quot;:0,&quot;rounded&quot;:0};" vertex="1" parent="1">
          <mxGeometry x="660" y="1060" width="10" height="80" as="geometry" />
        </mxCell>
        <mxCell id="Hyuof-0oOEh174YBL4KO-92" value="" style="html=1;verticalAlign=bottom;labelBackgroundColor=none;endArrow=block;endFill=1;rounded=0;" edge="1" parent="1" source="Hyuof-0oOEh174YBL4KO-86">
          <mxGeometry width="160" relative="1" as="geometry">
            <mxPoint x="490" y="963" as="sourcePoint" />
            <mxPoint x="840" y="960" as="targetPoint" />
          </mxGeometry>
        </mxCell>
        <mxCell id="Hyuof-0oOEh174YBL4KO-93" value="&lt;font style=&quot;font-size: 9px;&quot;&gt;destroy&lt;br&gt;&lt;/font&gt;" style="text;html=1;align=center;verticalAlign=middle;resizable=0;points=[];autosize=1;strokeColor=none;fillColor=none;" vertex="1" parent="1">
          <mxGeometry x="650" y="939" width="50" height="30" as="geometry" />
        </mxCell>
        <mxCell id="Hyuof-0oOEh174YBL4KO-94" value="" style="html=1;verticalAlign=bottom;labelBackgroundColor=none;endArrow=block;endFill=1;rounded=0;" edge="1" parent="1">
          <mxGeometry width="160" relative="1" as="geometry">
            <mxPoint x="490" y="1000" as="sourcePoint" />
            <mxPoint x="1200" y="1000" as="targetPoint" />
          </mxGeometry>
        </mxCell>
        <mxCell id="Hyuof-0oOEh174YBL4KO-95" value="&lt;font style=&quot;font-size: 9px;&quot;&gt;destroy&lt;br&gt;&lt;/font&gt;" style="text;html=1;align=center;verticalAlign=middle;resizable=0;points=[];autosize=1;strokeColor=none;fillColor=none;" vertex="1" parent="1">
          <mxGeometry x="780" y="978" width="50" height="30" as="geometry" />
        </mxCell>
        <mxCell id="Hyuof-0oOEh174YBL4KO-96" value="" style="html=1;points=[[0,0,0,0,5],[0,1,0,0,-5],[1,0,0,0,5],[1,1,0,0,-5]];perimeter=orthogonalPerimeter;outlineConnect=0;targetShapes=umlLifeline;portConstraint=eastwest;newEdgeStyle={&quot;curved&quot;:0,&quot;rounded&quot;:0};" vertex="1" parent="1">
          <mxGeometry x="840" y="960" width="10" height="20" as="geometry" />
        </mxCell>
        <mxCell id="Hyuof-0oOEh174YBL4KO-97" value="" style="html=1;points=[[0,0,0,0,5],[0,1,0,0,-5],[1,0,0,0,5],[1,1,0,0,-5]];perimeter=orthogonalPerimeter;outlineConnect=0;targetShapes=umlLifeline;portConstraint=eastwest;newEdgeStyle={&quot;curved&quot;:0,&quot;rounded&quot;:0};" vertex="1" parent="1">
          <mxGeometry x="1200" y="1000" width="10" height="20" as="geometry" />
        </mxCell>
        <mxCell id="Hyuof-0oOEh174YBL4KO-99" value="" style="html=1;verticalAlign=bottom;labelBackgroundColor=none;endArrow=block;endFill=1;rounded=0;" edge="1" parent="1" source="Hyuof-0oOEh174YBL4KO-91">
          <mxGeometry width="160" relative="1" as="geometry">
            <mxPoint x="670" y="1072" as="sourcePoint" />
            <mxPoint x="1020" y="1069" as="targetPoint" />
          </mxGeometry>
        </mxCell>
        <mxCell id="Hyuof-0oOEh174YBL4KO-100" value="&lt;font style=&quot;font-size: 9px;&quot;&gt;destroy&lt;br&gt;&lt;/font&gt;" style="text;html=1;align=center;verticalAlign=middle;resizable=0;points=[];autosize=1;strokeColor=none;fillColor=none;" vertex="1" parent="1">
          <mxGeometry x="815" y="1048" width="50" height="30" as="geometry" />
        </mxCell>
        <mxCell id="Hyuof-0oOEh174YBL4KO-101" value="" style="html=1;verticalAlign=bottom;labelBackgroundColor=none;endArrow=block;endFill=1;rounded=0;" edge="1" parent="1">
          <mxGeometry width="160" relative="1" as="geometry">
            <mxPoint x="670" y="1110" as="sourcePoint" />
            <mxPoint x="1390" y="1110" as="targetPoint" />
          </mxGeometry>
        </mxCell>
        <mxCell id="Hyuof-0oOEh174YBL4KO-102" value="&lt;font style=&quot;font-size: 9px;&quot;&gt;destroy&lt;br&gt;&lt;/font&gt;" style="text;html=1;align=center;verticalAlign=middle;resizable=0;points=[];autosize=1;strokeColor=none;fillColor=none;" vertex="1" parent="1">
          <mxGeometry x="970" y="1087" width="50" height="30" as="geometry" />
        </mxCell>
        <mxCell id="Hyuof-0oOEh174YBL4KO-103" value="" style="html=1;points=[[0,0,0,0,5],[0,1,0,0,-5],[1,0,0,0,5],[1,1,0,0,-5]];perimeter=orthogonalPerimeter;outlineConnect=0;targetShapes=umlLifeline;portConstraint=eastwest;newEdgeStyle={&quot;curved&quot;:0,&quot;rounded&quot;:0};" vertex="1" parent="1">
          <mxGeometry x="1020" y="1069" width="10" height="20" as="geometry" />
        </mxCell>
        <mxCell id="Hyuof-0oOEh174YBL4KO-104" value="" style="html=1;points=[[0,0,0,0,5],[0,1,0,0,-5],[1,0,0,0,5],[1,1,0,0,-5]];perimeter=orthogonalPerimeter;outlineConnect=0;targetShapes=umlLifeline;portConstraint=eastwest;newEdgeStyle={&quot;curved&quot;:0,&quot;rounded&quot;:0};" vertex="1" parent="1">
          <mxGeometry x="1390" y="1110" width="10" height="20" as="geometry" />
        </mxCell>
      </root>
    </mxGraphModel>
  </diagram>
</mxfile>
